<svg width="58" height="59" viewBox="0 0 58 59" fill="none" xmlns="http://www.w3.org/2000/svg">
<path d="M25.315 0.706312C25.7644 0.648121 26.3935 0.579351 26.7161 0.5529C27.0333 0.53174 28.0114 0.50529 28.8838 0.5C29.7562 0.5 30.7819 0.51587 31.1573 0.54761C31.5326 0.579351 32.2358 0.653411 32.717 0.711602C33.1981 0.769792 33.9118 0.880883 34.3031 0.949653C34.6943 1.02371 35.3605 1.16655 35.7835 1.26706C36.2065 1.36757 36.9096 1.55801 37.3432 1.68497C37.782 1.81722 38.4693 2.04469 38.8765 2.18752C39.2836 2.33564 39.9022 2.57899 40.2511 2.72182C40.6001 2.86994 41.2874 3.18734 41.7844 3.43068C42.2814 3.67402 43.0057 4.05491 43.397 4.27709C43.7882 4.50456 44.4544 4.91189 44.8773 5.18698C45.3003 5.46735 45.9559 5.92229 46.3313 6.20266C46.7067 6.48833 47.3147 6.96443 47.6795 7.26596C48.0443 7.56749 48.8638 8.33984 49.5089 8.98522C50.1486 9.62532 50.9205 10.4453 51.2219 10.8103C51.5233 11.1753 51.9991 11.7784 52.2846 12.1592C52.5648 12.5401 53.0195 13.1908 53.2997 13.614C53.5747 14.0372 53.9712 14.6773 54.1827 15.0423C54.3889 15.4073 54.796 16.1797 55.0815 16.7616C55.367 17.3435 55.7477 18.1899 55.9274 18.6395C56.1072 19.0892 56.3927 19.8774 56.5619 20.3853C56.7311 20.8931 56.9743 21.7395 57.1065 22.2632C57.2387 22.7869 57.4078 23.5275 57.4819 23.9031C57.5559 24.2787 57.6616 24.9241 57.7198 25.3314C57.7832 25.7388 57.8678 26.49 57.9154 26.9978C57.9683 27.5744 58 28.4949 58 29.4312C58 30.2618 57.9736 31.2827 57.9418 31.7059C57.9048 32.1292 57.8308 32.8327 57.7779 33.2665C57.7198 33.7056 57.614 34.3933 57.54 34.8006C57.466 35.208 57.2968 35.9803 57.1646 36.5199C57.0325 37.0595 56.7787 37.9376 56.6042 38.4772C56.4297 39.0168 56.1495 39.7997 55.9803 40.2229C55.8111 40.6461 55.5256 41.3127 55.3459 41.7041C55.1661 42.0956 54.9017 42.6457 54.7537 42.9208C54.6057 43.1959 54.3043 43.7355 54.0875 44.1111C53.8708 44.4867 53.4901 45.1109 53.2416 45.4865C52.9931 45.8621 52.5067 46.5445 52.1683 46.9942C51.8246 47.4438 51.3012 48.0998 50.9998 48.4489C50.7038 48.7981 50.1698 49.3747 49.8208 49.7344C49.4719 50.0994 48.8903 50.6602 48.5255 50.9881C48.1607 51.3214 47.6372 51.7711 47.3623 51.9985C47.0874 52.2207 46.5851 52.6122 46.252 52.8608C45.9189 53.1094 45.3109 53.5274 44.9038 53.7972C44.4967 54.0617 43.8199 54.4796 43.397 54.7229C42.974 54.961 42.1809 55.3789 41.6258 55.6487C41.0706 55.9185 40.23 56.294 39.7488 56.4792C39.2677 56.6696 38.5539 56.9289 38.1627 57.0611C37.7714 57.1934 37.0947 57.3944 36.6559 57.5161C36.2223 57.6324 35.4715 57.8123 34.9904 57.9128C34.5093 58.0133 33.7004 58.1561 33.1928 58.2302C32.6852 58.3043 31.9556 58.3942 31.5802 58.4312C31.1625 58.4735 30.158 58.5 29.016 58.5C27.8792 58.5 26.8694 58.4735 26.4517 58.4312C26.0763 58.3942 25.3467 58.3043 24.8391 58.2302C24.3316 58.1561 23.5702 58.0292 23.1473 57.9393C22.7243 57.8546 22.0264 57.6906 21.5875 57.5795C21.154 57.4632 20.4032 57.241 19.9221 57.0823C19.441 56.9236 18.7061 56.6591 18.2831 56.4898C17.8601 56.3205 17.1834 56.0295 16.7763 55.8444C16.3692 55.654 15.703 55.3207 15.2959 55.0985C14.8888 54.8816 14.2437 54.5113 13.8683 54.2785C13.493 54.0511 12.8955 53.6649 12.5466 53.4216C12.1976 53.1835 11.5896 52.7339 11.1983 52.4323C10.8071 52.1255 10.1885 51.6124 9.82369 51.295C9.45888 50.9723 8.74511 50.2846 8.23755 49.7661C7.72999 49.2424 7.08496 48.5441 6.80474 48.2109C6.52452 47.8776 6.06454 47.2904 5.77904 46.9148C5.49353 46.5392 5.04412 45.8938 4.77448 45.4865C4.50484 45.0792 4.11359 44.4497 3.9021 44.0846C3.69062 43.7196 3.27822 42.9367 2.98214 42.3389C2.68607 41.7412 2.27367 40.826 2.06218 40.3023C1.85599 39.7785 1.58634 39.0538 1.46474 38.6888C1.34842 38.3238 1.14222 37.6467 1.01533 37.1811C0.888442 36.7156 0.698105 35.9327 0.59765 35.4354C0.497194 34.9382 0.365016 34.2134 0.306858 33.822C0.248699 33.4305 0.164105 32.7375 0.121808 32.2879C0.0795114 31.8382 0.0266401 30.886 0.0107787 30.1718C-0.0103698 29.3836 0.000204464 28.4737 0.0372144 27.8442C0.0742243 27.2782 0.158818 26.3471 0.232838 25.7811C0.301571 25.2151 0.444323 24.3316 0.544779 23.8238C0.650521 23.3159 0.830284 22.5277 0.9466 22.0781C1.06292 21.6284 1.31141 20.8032 1.49646 20.253C1.68151 19.7028 1.98816 18.8776 2.17321 18.4279C2.36355 17.9783 2.64377 17.3329 2.80238 16.9996C2.961 16.6664 3.26236 16.0686 3.47913 15.6771C3.69062 15.2857 4.08187 14.6191 4.34622 14.1959C4.60529 13.7727 4.98597 13.1908 5.19216 12.8999C5.39307 12.6089 5.78961 12.0746 6.06983 11.7096C6.35533 11.3446 6.75715 10.8473 6.97393 10.5987C7.18541 10.3501 7.62424 9.86337 7.95204 9.51423C8.27456 9.16508 8.87201 8.57789 9.27383 8.20759C9.68094 7.84258 10.1991 7.37705 10.4317 7.18661C10.6643 6.99088 11.2089 6.56239 11.6477 6.2344C12.0813 5.90642 12.7475 5.43561 13.1281 5.18698C13.5035 4.94363 14.1591 4.54159 14.5821 4.29825C15.0051 4.0602 15.8034 3.64228 16.3533 3.37249C16.9032 3.1027 17.7755 2.71653 18.2831 2.51551C18.7907 2.31448 19.589 2.02353 20.0543 1.87541C20.5195 1.72729 21.3761 1.48395 21.9576 1.34112C22.5392 1.193 23.3482 1.01842 23.7553 0.944363C24.1624 0.870303 24.8656 0.759212 25.315 0.706312Z" fill="#C4A386"/>
<path d="M29.2275 50.1405C29.2275 50.0243 29.2698 49.9133 29.3333 49.8498C29.3967 49.7864 29.5078 49.7441 29.6241 49.7441C29.7668 49.7441 29.8356 49.7811 29.9149 49.8868C29.9783 49.9714 30.0259 50.0824 30.0259 50.1405C30.0259 50.1987 29.9783 50.3097 29.9149 50.3889C29.8356 50.4999 29.7668 50.5369 29.6241 50.5369C29.5078 50.5369 29.3967 50.4946 29.3333 50.4312C29.2698 50.3678 29.2275 50.2568 29.2275 50.1405Z" fill="white"/>
<path d="M21.9734 48.3491C22.0262 48.2645 22.1743 48.1534 22.3065 48.1005C22.4439 48.0423 22.666 48 22.8563 48C23.0625 48 23.2476 48.037 23.385 48.1005C23.5014 48.1587 23.6388 48.2645 23.6864 48.3386C23.7393 48.4126 23.7921 48.5343 23.808 48.6084C23.8344 48.7353 23.8292 48.7406 23.5172 48.7406C23.2846 48.7406 23.1947 48.7194 23.1735 48.6613C23.1577 48.6189 23.0572 48.566 22.9462 48.5502C22.8405 48.5343 22.6977 48.5449 22.629 48.5766C22.5655 48.6084 22.5127 48.6824 22.5127 48.7406C22.5127 48.7988 22.5602 48.8729 22.6184 48.8993C22.6766 48.9258 22.888 48.9892 23.0942 49.0316C23.2952 49.0739 23.5331 49.1479 23.623 49.1903C23.7181 49.2379 23.8186 49.349 23.8662 49.4706C23.919 49.5923 23.9402 49.7351 23.919 49.8515C23.9032 49.952 23.8503 50.0896 23.808 50.1583C23.7657 50.2218 23.6282 50.3276 23.5014 50.3858C23.348 50.4652 23.1735 50.5022 22.9356 50.5075C22.7241 50.5128 22.4915 50.4757 22.3382 50.4228C22.1796 50.3594 22.0474 50.2694 21.9734 50.1583C21.9099 50.0631 21.8412 49.9203 21.7725 49.6928H22.0897C22.3593 49.6928 22.4281 49.714 22.5391 49.8251C22.6395 49.9256 22.7241 49.9573 22.9039 49.9573C23.0414 49.9573 23.1735 49.9256 23.2211 49.878C23.2687 49.8356 23.3057 49.7722 23.3057 49.7457C23.3057 49.7193 23.2529 49.6611 23.1841 49.6188C23.1207 49.5817 22.8986 49.5077 22.6977 49.4601C22.4915 49.4124 22.2483 49.3278 22.1531 49.2696C22.0633 49.2114 21.9575 49.1056 21.9311 49.0316C21.8994 48.9575 21.8782 48.8094 21.8782 48.7036C21.8729 48.5925 21.9205 48.4338 21.9734 48.3491Z" fill="white"/>
<path d="M24.5224 48.0529V47.7091V47.3652H25.2098V48.0529H25.95V48.6348H25.2098V49.1744C25.2098 49.6188 25.2309 49.7352 25.3049 49.8145C25.3525 49.8674 25.4477 49.9097 25.5111 49.9045C25.5799 49.9045 25.6803 49.878 25.7385 49.8516C25.8337 49.8039 25.8548 49.8304 25.9553 50.0473C26.0557 50.2906 26.0557 50.3065 25.9658 50.37C25.913 50.4017 25.7543 50.4599 25.6063 50.4916C25.4265 50.5287 25.2785 50.5287 25.1305 50.4916C25.0141 50.4599 24.8661 50.3911 24.8027 50.3277C24.7339 50.2695 24.6546 50.1584 24.6229 50.079C24.5912 49.9944 24.5489 49.64 24.496 48.6348H24.1523V48.0529H24.5224Z" fill="white"/>
<path d="M30.9038 47.4167C30.9989 47.3585 31.0782 47.2844 31.0782 47.258C31.0782 47.2315 31.1945 47.2051 31.6069 47.2051V50.4849H30.9196V48.0515H30.2852V47.5754L30.5072 47.5489C30.6341 47.5331 30.8139 47.4749 30.9038 47.4167Z" fill="white"/>
<path d="M28.0644 48.2631V47.7341V47.2051H28.6988V50.4849H28.3816C28.0802 50.4849 28.0644 50.4796 28.0644 50.2204L27.8952 50.3421C27.8 50.4108 27.615 50.4796 27.4828 50.5008C27.3242 50.5272 27.155 50.5166 26.9805 50.4637C26.806 50.4108 26.658 50.3209 26.547 50.1992C26.4465 50.0934 26.3355 49.8871 26.2932 49.7337C26.2509 49.5803 26.2139 49.3634 26.2139 49.2576C26.2139 49.1465 26.2403 48.9561 26.2667 48.8344C26.2985 48.7074 26.4042 48.5064 26.5047 48.3795C26.6157 48.2472 26.7796 48.1255 26.9171 48.0726C27.0545 48.0197 27.2501 47.9933 27.4352 48.0092C27.6414 48.0197 27.7894 48.0621 28.0644 48.2631Z" fill="white"/>
<path d="M26.9113 49.0211C26.9642 48.8412 27.0223 48.746 27.1386 48.6773C27.2232 48.6244 27.3607 48.582 27.44 48.582C27.5246 48.582 27.6621 48.6191 27.7467 48.6614C27.8365 48.7037 27.9423 48.8201 27.9846 48.9259C28.0269 49.0264 28.0639 49.1692 28.0639 49.2433C28.0639 49.3173 28.0269 49.4602 27.9846 49.5607C27.9423 49.6612 27.8418 49.7882 27.7625 49.8358C27.6779 49.8834 27.5246 49.9257 27.4189 49.9257C27.2814 49.931 27.1862 49.894 27.0858 49.7987C27.0118 49.7247 26.9272 49.5766 26.9007 49.4708C26.8637 49.3279 26.869 49.1957 26.9113 49.0211Z" fill="#C4A386"/>
<path d="M19.1816 50.4849V48.845V47.2051H21.508V47.787H19.8161V48.5276H21.2965V49.1624H19.8161V49.8501H21.508V50.4849H19.1816Z" fill="white"/>
<path d="M38.1368 47.3957C38.2214 47.3375 38.38 47.2581 38.4804 47.2211C38.5809 47.1841 38.7712 47.1576 38.9034 47.1523C39.0356 47.1523 39.2365 47.1788 39.3528 47.2105C39.4691 47.2423 39.6489 47.3587 39.7546 47.4645C39.8709 47.5808 39.9714 47.7501 40.0137 47.8929C40.0666 48.0834 40.0613 48.1892 40.0084 48.422C39.9714 48.5859 39.8709 48.8028 39.7758 48.9245C39.6859 49.0409 39.4268 49.2895 38.7871 49.8238L40.0666 49.8503V50.4851H37.7402V49.9296L38.454 49.3371C38.8452 49.0091 39.2153 48.66 39.2735 48.5701C39.3317 48.4749 39.3792 48.3162 39.3792 48.2262C39.3792 48.1098 39.3317 48.004 39.2471 47.9194C39.1466 47.8189 39.0567 47.7871 38.8875 47.7871C38.7395 47.7871 38.6285 47.8189 38.5439 47.8929C38.4804 47.9511 38.4276 48.0252 38.4276 48.0517C38.4276 48.0834 38.2795 48.1046 38.0839 48.1046C37.7508 48.1046 37.7402 48.0993 37.772 47.9882C37.7878 47.9194 37.846 47.7871 37.8936 47.6866C37.9411 47.5861 38.0522 47.4592 38.1368 47.3957Z" fill="white"/>
<path d="M35.4395 47.3957C35.5241 47.3375 35.6827 47.2581 35.7832 47.2211C35.8836 47.1841 36.074 47.1576 36.2061 47.1523C36.3383 47.1523 36.5392 47.1788 36.6555 47.2105C36.7719 47.2423 36.9516 47.3587 37.0574 47.4645C37.1737 47.5808 37.2741 47.7501 37.3164 47.8929C37.3693 48.0834 37.364 48.1892 37.3111 48.422C37.2741 48.5859 37.1737 48.8028 37.0785 48.9245C36.9886 49.0409 36.7296 49.2895 36.0898 49.8238L37.3693 49.8503V50.4851H35.043V49.9296L35.7567 49.3371C36.148 49.0091 36.5181 48.66 36.5762 48.5701C36.6344 48.4749 36.682 48.3162 36.682 48.2262C36.682 48.1098 36.6344 48.004 36.5498 47.9194C36.4493 47.8189 36.3595 47.7871 36.1903 47.7871C36.0422 47.7871 35.9312 47.8189 35.8466 47.8929C35.7832 47.9511 35.7303 48.0252 35.7303 48.0517C35.7303 48.0834 35.5823 48.1046 35.3866 48.1046C35.0535 48.1046 35.043 48.0993 35.0747 47.9882C35.0906 47.9194 35.1487 47.7871 35.1963 47.6866C35.2439 47.5861 35.3549 47.4592 35.4395 47.3957Z" fill="white"/>
<path d="M32.5426 47.508C32.6536 47.3969 32.8387 47.2753 32.955 47.2329C33.0713 47.1959 33.2722 47.1589 33.4044 47.1589C33.5366 47.1536 33.7322 47.18 33.8379 47.2065C33.949 47.2382 34.1129 47.3229 34.2027 47.4075C34.2979 47.4869 34.4248 47.6614 34.4935 47.8043C34.5623 47.9418 34.6469 48.2381 34.6839 48.4655C34.7314 48.7829 34.7314 48.9628 34.6786 49.2696C34.6416 49.4971 34.557 49.7722 34.4724 49.9203C34.3931 50.0631 34.245 50.2324 34.1446 50.3012C34.0441 50.3699 33.8379 50.4546 33.6952 50.4863C33.5471 50.5181 33.3251 50.5286 33.1929 50.5128C33.0607 50.4916 32.8704 50.4334 32.7699 50.3805C32.6695 50.3276 32.5426 50.243 32.495 50.1901C32.4474 50.1319 32.3681 49.9996 32.3258 49.8938C32.2782 49.7827 32.2412 49.6822 32.2412 49.6664C32.2412 49.6505 32.3945 49.6399 32.5849 49.6399C32.7805 49.6399 32.9285 49.6611 32.9285 49.6928C32.9285 49.7193 33.0026 49.7827 33.0872 49.8251C33.1717 49.8674 33.3356 49.9044 33.4414 49.9044C33.5524 49.9044 33.7005 49.8621 33.7692 49.8145C33.8432 49.7616 33.9437 49.624 33.9965 49.5077C34.0494 49.3913 34.0917 49.222 34.0917 49.1374C34.097 48.9892 34.0917 48.9839 34.0018 49.0686C33.949 49.1162 33.8168 49.1955 33.7057 49.2379C33.6 49.2855 33.3991 49.3225 33.2616 49.3225C33.1189 49.3225 32.9127 49.2802 32.7964 49.2273C32.68 49.1744 32.5109 49.0368 32.4263 48.9258C32.2994 48.7618 32.2624 48.656 32.2465 48.402C32.2359 48.2222 32.2518 47.9947 32.2835 47.8942C32.3152 47.7937 32.4315 47.6191 32.5426 47.508Z" fill="white"/>
<path d="M33.0448 47.9094C33.1135 47.8512 33.214 47.7878 33.2722 47.7719C33.3303 47.7561 33.3938 47.7455 33.4149 47.7402C33.4414 47.7402 33.5418 47.7719 33.6423 47.8142C33.7656 47.8671 33.8537 47.9552 33.9066 48.0785C33.9754 48.2423 33.9754 48.2846 33.9066 48.4485C33.8537 48.5753 33.7639 48.6599 33.6264 48.718C33.4678 48.7867 33.3938 48.792 33.2299 48.7444C33.0924 48.7021 33.0078 48.6387 32.9496 48.5119C32.8968 48.4115 32.8756 48.2793 32.8968 48.1842C32.9126 48.0943 32.9814 47.9728 33.0448 47.9094Z" fill="#C4A386"/>
<path d="M50.6877 30.4835C50.8992 30.2666 51.0578 30.1608 51.2481 30.1026C51.3909 30.055 51.6394 30.018 51.7874 30.018C51.946 30.0127 52.1892 30.0603 52.3426 30.1185C52.4959 30.1767 52.7127 30.2931 52.8237 30.383C52.9347 30.4729 53.088 30.6845 53.1832 30.8697C53.3312 31.1712 53.3418 31.24 53.326 31.6262C53.3154 31.9436 53.2784 32.1075 53.1885 32.2874C53.1198 32.4197 52.9929 32.5942 52.9136 32.6842C52.829 32.7688 52.6492 32.9011 52.5065 32.9751C52.2897 33.0862 52.1839 33.1074 51.7768 33.1074C51.3856 33.1074 51.2587 33.0862 51.0789 32.9857C50.952 32.9222 50.7617 32.7794 50.656 32.6683C50.5502 32.5625 50.418 32.3668 50.3599 32.2345C50.3017 32.1023 50.2436 31.8642 50.2277 31.7055C50.2118 31.5151 50.233 31.3088 50.2964 31.0971C50.3705 30.8432 50.4498 30.7216 50.6877 30.4835Z" fill="white"/>
<path d="M5.83202 30.4C5.97477 30.2677 6.20212 30.1302 6.3343 30.0879C6.47705 30.0455 6.72554 30.0191 6.94232 30.0297C7.23311 30.0455 7.37586 30.0826 7.59792 30.2042C7.75653 30.2889 7.96273 30.4529 8.06319 30.5693C8.15836 30.6856 8.27467 30.8867 8.31697 31.0189C8.36455 31.1512 8.39628 31.421 8.39628 31.6273C8.39628 31.9288 8.36984 32.0505 8.25352 32.2832C8.16893 32.4419 7.99974 32.6641 7.86756 32.7752C7.73539 32.8863 7.50804 33.0185 7.36529 33.0662C7.18024 33.1243 6.98461 33.1402 6.73083 33.1243C6.50877 33.1085 6.27614 33.0556 6.14925 32.9921C6.03293 32.9339 5.83731 32.7752 5.71042 32.6377C5.58881 32.5054 5.45135 32.3044 5.40376 32.1986C5.3456 32.0716 5.31388 31.8442 5.30859 31.6008C5.30859 31.2834 5.33503 31.1459 5.43548 30.9184C5.52008 30.7385 5.66812 30.5428 5.83202 30.4Z" fill="white"/>
<path d="M35.2285 16.8404C35.4928 16.7505 35.8576 16.6394 36.048 16.597C36.2806 16.5494 36.6243 16.5336 37.1054 16.5441C37.6183 16.56 37.9249 16.597 38.1998 16.6764C38.4113 16.7399 38.7233 16.8563 38.8872 16.9409C39.0564 17.0255 39.3207 17.1895 39.4687 17.3112C39.6221 17.4276 39.8441 17.6551 39.9552 17.8085C40.0715 17.9566 40.2354 18.2317 40.3253 18.4168C40.4151 18.5967 40.5262 18.8929 40.5685 19.0781C40.6108 19.2579 40.6478 19.5119 40.6478 19.6441C40.6478 19.7764 40.6108 20.0514 40.5685 20.2525C40.5262 20.4588 40.4204 20.7656 40.3358 20.9402C40.246 21.1147 40.0979 21.3528 39.9975 21.4692C39.897 21.5856 39.6644 21.7654 39.4793 21.8659C39.178 22.0246 39.0881 22.0511 38.6651 22.067C38.2421 22.0828 38.1628 22.0722 37.9513 21.9611C37.8192 21.8871 37.6341 21.7284 37.5389 21.5961C37.4385 21.4692 37.3275 21.247 37.2852 21.0989C37.2429 20.956 37.2111 20.755 37.2111 20.6651C37.2111 20.5699 37.2376 20.4799 37.264 20.4641C37.2905 20.4482 37.4015 20.4746 37.5019 20.517C37.6024 20.5593 37.7822 20.5963 37.8985 20.5963C38.0518 20.5963 38.1523 20.5593 38.2739 20.4535C38.369 20.3688 38.4906 20.2101 38.5488 20.0938C38.6193 19.9527 38.6545 19.7764 38.6545 19.5648C38.6545 19.3479 38.6122 19.1574 38.5276 18.9617C38.4483 18.7818 38.3109 18.5967 38.1628 18.4697C38.0307 18.3586 37.8033 18.2264 37.6606 18.1788C37.5125 18.1312 37.2429 18.0941 37.0525 18.0941C36.8093 18.0941 36.6296 18.1312 36.4445 18.2105C36.2965 18.2793 36.1061 18.3904 36.0215 18.4644C35.9369 18.5385 35.7836 18.7078 35.6885 18.8453C35.5933 18.9776 35.4664 19.2421 35.4082 19.4325C35.3342 19.6653 35.3025 19.9351 35.2972 20.2525C35.2972 20.6228 35.3236 20.8079 35.4241 21.0989C35.4928 21.3052 35.662 21.6385 35.7942 21.8395C35.9264 22.0458 36.2013 22.3844 36.3969 22.6012C36.5978 22.8181 37.0472 23.2361 37.3962 23.5323C37.7451 23.8285 38.4007 24.3628 38.8502 24.7226C39.2996 25.0823 39.9182 25.5954 40.2248 25.8652C40.5315 26.1297 40.9597 26.537 41.1818 26.7645C41.3986 26.9973 41.7105 27.3517 41.8744 27.5527C42.0383 27.759 42.2815 28.1029 42.4243 28.3198C42.5617 28.5367 42.7679 28.907 42.8737 29.1397C42.9847 29.3725 43.1327 29.764 43.2015 30.0126C43.2755 30.2612 43.3601 30.6897 43.3971 30.9648C43.4394 31.2769 43.4552 31.7107 43.4341 32.1022C43.4182 32.4513 43.3654 32.9168 43.3178 33.1337C43.2702 33.3506 43.175 33.705 43.1063 33.9166C43.0323 34.123 42.8684 34.5038 42.7415 34.763C42.6146 35.017 42.382 35.4031 42.2286 35.62C42.0753 35.8369 41.7475 36.2178 41.499 36.4664C41.2505 36.7151 40.8434 37.0536 40.5949 37.2176C40.3464 37.3816 39.9657 37.6038 39.749 37.7096C39.5322 37.8207 39.1145 37.9847 38.8237 38.0852C38.5329 38.1804 38.0835 38.2968 37.8192 38.3444C37.5548 38.392 37.0472 38.4396 36.6824 38.4608C36.3176 38.4767 35.7255 38.4608 35.3607 38.429C34.9958 38.3973 34.4618 38.318 34.171 38.2598C33.8803 38.2016 33.4626 38.0905 33.2458 38.0217C33.029 37.9477 32.6484 37.7942 32.3999 37.6779C32.1514 37.5615 31.7866 37.3552 31.5804 37.2176C31.3742 37.0801 31.0305 36.7997 30.8137 36.5934C30.5969 36.3871 30.285 36.0274 30.1264 35.7999C29.9678 35.5671 29.751 35.1915 29.6453 34.9588C29.5342 34.726 29.3968 34.3557 29.3386 34.1388C29.2752 33.9219 29.2011 33.4934 29.1694 33.1866C29.1271 32.7846 29.1271 32.4777 29.1694 32.0757C29.2011 31.7689 29.2857 31.3192 29.3545 31.0706C29.4285 30.822 29.5501 30.4781 29.6241 30.3035C29.7034 30.129 29.8726 29.8222 30.0048 29.6158C30.137 29.4148 30.359 29.1133 30.7609 28.6636L30.4859 28.2669C30.3379 28.05 29.9625 27.6215 29.6558 27.3147C29.291 26.9549 28.8892 26.6164 28.5138 26.3678C28.1966 26.1562 27.7208 25.8758 27.4564 25.7541C27.192 25.6271 26.7056 25.442 26.3725 25.3362C26.0394 25.2357 25.5636 25.114 25.3151 25.0717C25.0666 25.0294 24.7547 24.9818 24.3634 24.9342V28.6636C24.3634 31.6102 24.3793 32.3931 24.4269 32.3931C24.4639 32.3931 24.7229 32.3402 24.9979 32.2661C25.2728 32.1974 25.6905 32.0493 25.9231 31.9382C26.1875 31.8059 26.4677 31.6102 26.6898 31.4092C26.8854 31.224 27.1074 30.9542 27.2026 30.7744C27.2925 30.6051 27.3982 30.33 27.4352 30.1713C27.4775 29.9544 27.4828 29.8116 27.4352 29.6158C27.3982 29.4413 27.3242 29.2984 27.2132 29.1926C27.1022 29.0815 27.0017 29.0339 26.8801 29.0339C26.7849 29.0339 26.6633 29.071 26.6157 29.1133C26.5629 29.1556 26.5047 29.2773 26.4783 29.3778C26.4466 29.4942 26.4466 29.6529 26.4836 29.801C26.5153 29.9332 26.5629 30.0814 26.5893 30.1343C26.6263 30.2083 26.6157 30.2242 26.4889 30.2242C26.4095 30.2242 26.2192 30.1872 26.0659 30.1448C25.9126 30.1025 25.7011 29.9861 25.59 29.8909C25.4843 29.7904 25.3363 29.5841 25.2675 29.4254C25.1618 29.1768 25.1459 29.0815 25.1671 28.6901C25.1829 28.3356 25.2199 28.1822 25.331 27.9653C25.4103 27.8119 25.5636 27.6003 25.6693 27.4998C25.7804 27.394 25.9443 27.2776 26.0289 27.2353C26.1135 27.193 26.3197 27.1348 26.4783 27.1031C26.6792 27.066 26.8589 27.066 27.044 27.1031C27.1973 27.1295 27.4194 27.2036 27.5357 27.2618C27.652 27.32 27.8582 27.4787 27.9904 27.6215C28.1226 27.759 28.3023 28.013 28.3869 28.1875C28.4715 28.3621 28.5773 28.6742 28.6196 28.8752C28.6619 29.0815 28.6989 29.3937 28.6989 29.5788C28.6989 29.7587 28.6619 30.0919 28.6196 30.3194C28.572 30.5575 28.4398 30.9225 28.3023 31.2029C28.1596 31.5044 27.9587 31.8059 27.763 32.0175C27.5939 32.2027 27.3136 32.4566 27.1392 32.5783C26.9647 32.7052 26.6792 32.8745 26.5047 32.9644C26.3302 33.0491 25.9919 33.1813 25.7487 33.2607C25.5107 33.3347 25.1089 33.4352 24.8498 33.4776C24.5961 33.5199 24.3846 33.5569 24.374 33.5569C24.3687 33.5569 24.374 34.1124 24.3846 34.7895C24.4004 35.7364 24.4216 36.0908 24.4956 36.3342C24.5432 36.5088 24.6595 36.805 24.7494 36.9954C24.8551 37.2176 25.0455 37.4715 25.2887 37.7202C25.5425 37.9794 25.7645 38.1487 26.0024 38.2598C26.1928 38.3497 26.3884 38.4238 26.436 38.4238C26.4889 38.4238 26.5417 38.4502 26.5576 38.4767C26.5734 38.5084 26.436 38.5296 26.1981 38.5296C25.9919 38.5296 25.6006 38.5666 25.3415 38.6089C25.0825 38.6512 24.6859 38.7359 24.4692 38.7941C24.2524 38.8575 23.8823 38.9951 23.6497 39.1062C23.417 39.212 22.9993 39.4553 22.7244 39.6405C22.3437 39.8997 21.9155 40.2911 20.9532 41.2539C20.0756 42.1321 19.5839 42.5817 19.3671 42.7087C19.1979 42.8092 18.8965 42.9467 18.7062 43.0102C18.4418 43.1054 18.2409 43.1319 17.8074 43.1319C17.4161 43.1319 17.1306 43.1002 16.8293 43.0261C16.5966 42.9626 16.29 42.8515 16.1419 42.7722C15.9992 42.6928 15.719 42.4759 15.5286 42.2855C15.2801 42.0369 15.1321 41.8305 14.9946 41.5449C14.8889 41.328 14.7779 41.037 14.7461 40.8995C14.7144 40.7567 14.6721 40.471 14.6563 40.2647C14.6404 40.0161 14.6563 39.7198 14.7091 39.4289C14.7567 39.1749 14.8677 38.8152 14.9682 38.6089C15.0687 38.4079 15.2643 38.1064 15.4123 37.9477C15.5604 37.789 15.8036 37.5879 15.9622 37.5033C16.1208 37.4186 16.364 37.3181 16.512 37.2758C16.6548 37.2388 16.9403 37.207 17.1465 37.207C17.3527 37.207 17.6488 37.2441 17.8074 37.2917C17.966 37.334 18.2145 37.461 18.3572 37.5668C18.5211 37.6884 18.6745 37.863 18.7538 38.027C18.8542 38.2174 18.8965 38.392 18.9071 38.6618C18.923 38.9422 18.9018 39.0797 18.8278 39.2331C18.7749 39.3442 18.685 39.4659 18.6269 39.5029C18.5687 39.54 18.4577 39.5876 18.3731 39.6034C18.2515 39.6352 18.2304 39.6246 18.2304 39.5241C18.2304 39.4553 18.1828 39.3019 18.1246 39.1802C18.0559 39.0374 17.9554 38.921 17.8444 38.8681C17.7545 38.8205 17.6012 38.7782 17.5166 38.7782C17.432 38.7782 17.2892 38.8258 17.2047 38.8787C17.1253 38.9369 17.0143 39.0533 16.9562 39.1379C16.9033 39.2278 16.8346 39.4183 16.8028 39.5611C16.75 39.778 16.7552 39.8785 16.824 40.1324C16.8821 40.3388 16.9667 40.4975 17.1042 40.635C17.2311 40.762 17.4161 40.873 17.5959 40.9312C17.8074 41.0053 17.9819 41.0212 18.2304 41.0053C18.463 40.9894 18.6745 40.9312 18.886 40.8254C19.0551 40.7408 19.3301 40.5504 19.494 40.4022C19.6579 40.2541 19.9222 39.9473 20.0809 39.7145C20.2395 39.4871 20.4668 39.085 20.5884 38.8205C20.7153 38.556 20.8739 38.154 20.9532 37.9212C21.0272 37.6884 21.1383 37.2705 21.2017 36.9954C21.2969 36.567 21.318 36.2654 21.3603 33.3718L21.0272 33.2765C20.8422 33.2184 20.4721 33.0755 20.213 32.9539C19.954 32.8322 19.5944 32.6365 19.42 32.5201C19.2455 32.409 18.9653 32.1815 18.7961 32.0228C18.6216 31.8641 18.3731 31.589 18.2409 31.4145C18.1088 31.2399 17.9026 30.8854 17.7757 30.6209C17.6488 30.3564 17.4954 29.9544 17.432 29.7216C17.3421 29.3884 17.321 29.1397 17.3157 28.5578C17.3157 28.0606 17.3421 27.6956 17.4003 27.4469C17.4426 27.2459 17.543 26.9126 17.6223 26.7063C17.6964 26.5053 17.8444 26.1826 17.9501 25.9922C18.0506 25.8017 18.2409 25.5161 18.3625 25.3574C18.4841 25.1987 18.7644 24.9024 18.9758 24.6961C19.1926 24.4951 19.4993 24.2412 19.6579 24.1354C19.8165 24.0296 20.139 23.8497 20.3716 23.7333C20.6043 23.6169 20.9215 23.4794 21.3498 23.3471V21.6437C21.3498 20.2948 21.3286 19.861 21.2652 19.5912C21.2229 19.4008 21.133 19.1521 21.0643 19.0358C20.9955 18.9194 20.8528 18.7448 20.747 18.6549C20.6413 18.5597 20.4562 18.4539 20.3293 18.4221C20.2077 18.3904 20.0015 18.3745 19.8694 18.3957C19.7372 18.4115 19.5469 18.4803 19.4464 18.5491C19.3459 18.6178 19.2085 18.7765 19.145 18.9088C19.0657 19.0622 19.0234 19.2368 19.0234 19.4219C19.0234 19.5701 19.0551 19.7764 19.0922 19.8716C19.1345 19.9615 19.2349 20.0938 19.3195 20.1625C19.4094 20.2313 19.5416 20.2842 19.642 20.2789C19.7372 20.2789 19.9117 20.2313 20.028 20.1731C20.1443 20.1149 20.2606 20.0673 20.2923 20.0673C20.3241 20.0673 20.3611 20.1202 20.3822 20.189C20.3981 20.2525 20.4087 20.4323 20.4087 20.5857C20.4034 20.7339 20.3611 20.9508 20.3135 21.0618C20.2712 21.1676 20.176 21.3369 20.102 21.4321C20.0333 21.5221 19.8747 21.6543 19.7478 21.7125C19.6209 21.7813 19.383 21.8395 19.182 21.8553C18.9547 21.8712 18.7379 21.8501 18.5317 21.7919C18.315 21.7284 18.1563 21.6385 17.9501 21.4533C17.7862 21.2999 17.6223 21.083 17.543 20.9084C17.4267 20.6545 17.4109 20.554 17.4109 19.9615C17.4109 19.3003 17.4109 19.3003 17.617 18.8771C17.7545 18.5861 17.9131 18.3586 18.1193 18.1576C18.2832 17.9989 18.5476 17.8032 18.7062 17.7238C18.8648 17.6445 19.1292 17.544 19.2878 17.5016C19.4887 17.4487 19.8482 17.4223 20.451 17.4223C20.9321 17.4223 21.667 17.4487 22.09 17.4805C22.5129 17.5122 23.4646 17.5545 25.553 17.6074L25.3415 17.7132C25.2252 17.7714 25.0402 17.909 24.9291 18.0148C24.8234 18.1259 24.6859 18.311 24.6278 18.4274C24.5696 18.5438 24.485 18.7765 24.4427 18.9458C24.3793 19.1892 24.3634 19.6335 24.3634 23.162L24.982 23.2308C25.3257 23.2678 25.8438 23.3471 26.1346 23.4053C26.4254 23.4688 26.9488 23.6064 27.2978 23.7227C27.6467 23.8338 28.1596 24.0348 28.4345 24.1671C28.7094 24.3046 29.1747 24.5691 29.4655 24.7649C29.7563 24.9606 30.2427 25.3574 30.5441 25.6483C30.8454 25.9393 31.205 26.3201 31.3424 26.4947C31.4799 26.6693 31.6808 26.9444 31.9822 27.394L31.9663 23.4L31.9662 23.3804C31.9505 19.4482 31.9503 19.4002 31.8341 19.0622C31.7707 18.8718 31.6491 18.6126 31.5645 18.4803C31.4799 18.3481 31.3319 18.1629 31.2314 18.0677C31.1309 17.9672 30.9459 17.8243 30.5758 17.6074L31.5804 17.5757C32.3629 17.5493 32.7277 17.5122 33.2458 17.4064C33.6106 17.3271 34.097 17.2107 34.3297 17.1419C34.5623 17.0679 34.9641 16.9356 35.2285 16.8404Z" fill="white"/>
<path d="M20.324 26.3157C20.4667 26.1305 20.7364 25.8607 20.9267 25.7232C21.117 25.5804 21.2862 25.464 21.3127 25.464C21.3338 25.464 21.3497 26.9187 21.3497 28.6909C21.3497 30.4631 21.3338 31.9178 21.3127 31.9178C21.2862 31.9178 21.1435 31.812 20.9849 31.6904C20.8315 31.5687 20.5883 31.3253 20.4509 31.1508C20.3134 30.9762 20.1442 30.7276 20.0702 30.5953C19.9909 30.4631 19.8746 30.1933 19.8006 29.987C19.7265 29.7859 19.6419 29.4262 19.6049 29.1935C19.5626 28.9395 19.5468 28.5904 19.5679 28.3206C19.5838 28.072 19.6525 27.707 19.716 27.5006C19.7741 27.2996 19.8851 27.0245 19.9486 26.8923C20.0173 26.76 20.1865 26.5008 20.324 26.3157Z" fill="#C4A386"/>
<path d="M34.9905 27.289L34.9958 26.1094V24.9297L35.4822 25.3476C35.7518 25.5751 36.4339 26.1305 36.9996 26.5855C37.5653 27.0351 38.2579 27.6117 38.5328 27.8551C38.8078 28.1037 39.199 28.4952 39.3946 28.7226C39.5956 28.9554 39.9022 29.3522 40.0714 29.6167C40.2459 29.8812 40.4574 30.2779 40.542 30.5054C40.6318 30.7276 40.7376 31.0714 40.7852 31.2724C40.8327 31.4735 40.8645 31.8649 40.8645 32.1823C40.8645 32.4892 40.838 32.8912 40.8063 33.0816C40.7746 33.2721 40.69 33.6159 40.6213 33.8487C40.5472 34.0815 40.3939 34.4623 40.2776 34.6951C40.156 34.9279 39.9234 35.2929 39.7595 35.5098C39.5956 35.7267 39.3524 35.9965 39.2202 36.1128C39.088 36.2292 38.8395 36.4197 38.665 36.536C38.4906 36.6524 38.205 36.8164 38.0306 36.8958C37.8561 36.9751 37.56 37.0809 37.3697 37.1285C37.1793 37.1761 36.8357 37.2396 36.603 37.2661C36.3281 37.2978 35.9845 37.2925 35.6249 37.2555C35.3183 37.2237 34.8689 37.1391 34.6204 37.065C34.3719 36.9963 34.0176 36.8534 33.8273 36.7529C33.637 36.6577 33.3409 36.462 33.1664 36.3191C32.9919 36.1816 32.7223 35.9118 32.569 35.7214C32.4156 35.5362 32.183 35.1712 32.0561 34.9067C31.9239 34.6422 31.7653 34.2402 31.7019 34.0074C31.6067 33.653 31.5856 33.4414 31.5856 32.6849C31.5803 31.9549 31.6014 31.7168 31.6807 31.4153C31.7389 31.209 31.8393 30.9021 31.9134 30.7276C31.9821 30.553 32.1407 30.2568 32.2676 30.0663C32.3892 29.8759 32.6218 29.6061 32.7752 29.4633C32.9338 29.3204 33.2404 29.1194 33.4572 29.0136C33.7903 28.8549 33.9225 28.8232 34.3031 28.8073C34.5516 28.7914 34.8847 28.8126 35.0433 28.8443C35.202 28.8813 35.4505 28.966 35.5985 29.04C35.7412 29.1141 35.9739 29.2834 36.1113 29.4209C36.2541 29.5585 36.4286 29.8124 36.5079 29.987C36.6348 30.2568 36.6559 30.3731 36.6559 30.754C36.6559 31.119 36.6295 31.2566 36.5237 31.4893C36.4497 31.648 36.2964 31.8649 36.1748 31.9654C36.0585 32.0712 35.8681 32.1876 35.7518 32.2194C35.6408 32.2564 35.4557 32.2881 35.3447 32.2881C35.239 32.2881 35.0909 32.2617 35.0169 32.2352C34.9429 32.2088 34.7948 32.103 34.6838 32.0025C34.5781 31.9072 34.4406 31.7274 34.3825 31.6057C34.3243 31.484 34.2608 31.3888 34.2344 31.3888C34.2133 31.3888 34.1234 31.4682 34.0335 31.5634C33.933 31.6639 33.8326 31.8649 33.7691 32.0765C33.711 32.267 33.6687 32.5632 33.6687 32.7378C33.6687 32.9124 33.711 33.2086 33.7691 33.399C33.8273 33.5895 33.9542 33.8487 34.0547 33.9809C34.1498 34.1132 34.3507 34.2931 34.4935 34.3883C34.6362 34.4782 34.8953 34.5946 35.0698 34.6422C35.3077 34.711 35.5245 34.7321 35.9422 34.7163C36.4497 34.6951 36.529 34.6739 36.8938 34.4994C37.1846 34.3565 37.375 34.219 37.6182 33.9598C37.8085 33.7641 38.0306 33.4572 38.131 33.2562C38.2262 33.0552 38.3478 32.7642 38.3901 32.6055C38.4377 32.4468 38.5011 32.103 38.5328 31.8385C38.5751 31.5052 38.5751 31.2195 38.5381 30.8863C38.5064 30.6218 38.4324 30.2462 38.3689 30.0399C38.3055 29.8388 38.1945 29.5532 38.1257 29.4051C38.0517 29.2622 37.8931 28.9977 37.7662 28.8232C37.6446 28.6486 37.4278 28.4 37.2851 28.273C37.1423 28.1513 36.8727 27.9556 36.6824 27.8445C36.492 27.7281 36.1589 27.58 35.9422 27.5059C35.7254 27.4319 35.4187 27.3578 34.9905 27.289Z" fill="#C4A386"/>
<path d="M43.3701 13.5085C43.3701 13.4767 43.9147 12.8525 44.5809 12.1119C45.6013 10.9851 45.8075 10.7788 45.8762 10.8317C45.9238 10.8635 46.3679 11.2602 46.8596 11.7099C47.3566 12.1595 47.7584 12.5404 47.7584 12.5563C47.7584 12.5721 47.6633 12.6991 47.3355 13.08L45.9079 11.7734L45.6171 12.0908C45.3687 12.3605 45.3369 12.4134 45.4057 12.4716C45.448 12.5087 45.7282 12.7626 46.5688 13.5349L46.1194 14.011L45.5273 13.4715C45.1995 13.1699 44.914 12.9266 44.8928 12.9266C44.8664 12.9266 44.7395 13.0588 44.3482 13.5085L45.0514 14.1486C45.4321 14.4977 45.7388 14.7993 45.7282 14.8204C45.7229 14.8416 45.6171 14.958 45.2999 15.3071L45.2999 15.3071L44.3377 14.4342C43.8037 13.9528 43.3701 13.5349 43.3701 13.5085Z" fill="white"/>
<path d="M12.8483 10.3075L13.2131 9.9848L13.5832 9.66211L13.7841 9.90545C13.8951 10.0377 14.4397 10.6831 15.9941 12.5293L15.7139 12.7515C15.5553 12.8785 15.4231 12.979 15.4178 12.979C15.4072 12.979 15.0213 12.5293 14.556 11.9791C14.0907 11.429 13.7048 10.9793 13.6942 10.9846C13.6889 10.9899 13.7735 11.4554 14.0802 13.0319L13.8687 13.2488L13.3558 13.0583C13.0703 12.9578 12.605 12.7885 12.3248 12.6827C11.9283 12.5399 11.8278 12.5134 11.886 12.5875C11.9283 12.6351 12.3248 13.1112 12.7689 13.6349C13.5514 14.5713 13.5673 14.5924 13.4563 14.6665C13.3928 14.7088 13.2607 14.8146 13.1655 14.9045C13.0174 15.0474 12.9857 15.058 12.9223 14.9892C12.8853 14.9469 12.3407 14.3015 10.5801 12.2119L11.3309 11.5665L12.2825 11.9262C12.806 12.122 13.2395 12.2807 13.2448 12.2754C13.2554 12.2701 13.1655 11.8257 12.8483 10.3075Z" fill="white"/>
<path d="M41.4884 9.32813C41.6788 9.13769 41.8902 8.98957 42.0753 8.91551C42.3026 8.82557 42.4454 8.80441 42.7362 8.81499C43.0111 8.83086 43.1856 8.87319 43.4182 8.98957C43.5927 9.07421 43.8465 9.25407 43.9892 9.3969C44.1267 9.53444 44.2959 9.75662 44.354 9.89945C44.4281 10.0582 44.4651 10.2539 44.4651 10.439C44.4651 10.5977 44.4386 10.7935 44.4069 10.8781C44.3488 11.0209 44.3488 11.0209 44.2007 10.931C44.1214 10.8834 43.9787 10.7935 43.8835 10.7353C43.746 10.6453 43.7196 10.5977 43.7407 10.4919C43.7566 10.4179 43.746 10.2909 43.7143 10.201C43.6826 10.1163 43.6033 9.98409 43.5398 9.91532C43.4764 9.84655 43.3019 9.73546 43.1591 9.66669C43.0111 9.59792 42.8208 9.53973 42.7362 9.53973C42.6516 9.53973 42.4824 9.58734 42.3661 9.64024C42.2498 9.69843 42.0753 9.83597 41.9748 9.94706C41.8744 10.0582 41.7369 10.2698 41.6682 10.4126C41.5942 10.5713 41.5466 10.7776 41.5466 10.931C41.5466 11.0686 41.5783 11.2431 41.6206 11.3278C41.6576 11.4071 41.7739 11.5447 41.8691 11.6346C41.9695 11.7192 42.144 11.825 42.2603 11.8621C42.3819 11.9044 42.5617 11.9202 42.6833 11.8991C42.7996 11.8832 42.9371 11.825 42.99 11.7774C43.0428 11.7245 43.0798 11.6716 43.0798 11.6557C43.0798 11.6399 42.9001 11.5129 42.678 11.3648C42.4612 11.222 42.2815 11.0897 42.2868 11.0738C42.2868 11.058 42.3608 10.9363 42.604 10.5448L43.3283 11.0262C43.7302 11.296 44.0632 11.5182 44.0685 11.5288C44.0791 11.5394 44.058 11.6028 44.0209 11.6716C43.9892 11.7351 43.8412 11.915 43.6931 12.0737C43.5451 12.2271 43.3336 12.4016 43.2226 12.4545C43.1168 12.5074 42.9159 12.5815 42.7785 12.608C42.5776 12.6503 42.456 12.645 42.2075 12.5815C42.033 12.5339 41.7739 12.4228 41.6312 12.3276C41.4884 12.2324 41.2716 12.0525 41.1553 11.9202C41.0179 11.7668 40.9015 11.5605 40.8381 11.3648C40.7641 11.132 40.7482 10.9628 40.7694 10.73C40.7905 10.5184 40.8645 10.2803 40.9967 10.0158C41.1236 9.7672 41.3034 9.51328 41.4884 9.32813Z" fill="white"/>
<path d="M15.6187 8.43468C15.6346 8.41881 15.7932 8.3183 15.9676 8.2125L16.2849 8.02734L17.115 8.6886C17.5696 9.05361 18.2675 9.61965 19.3937 10.5454L18.6905 10.9422L18.4737 10.7464C18.3521 10.6353 18.22 10.5454 18.1777 10.5454C18.1354 10.5454 17.8023 10.72 17.4375 10.9369C16.9299 11.2331 16.7766 11.3442 16.7871 11.4235C16.7924 11.4764 16.8136 11.6299 16.8665 12.0002L16.5281 12.1906C16.3483 12.3017 16.1897 12.381 16.1844 12.3758C16.1791 12.3758 16.0417 11.4923 15.8778 10.4184C15.7139 9.34985 15.5975 8.45584 15.6187 8.43468Z" fill="white"/>
<path d="M16.6867 10.5556C16.6497 10.5662 16.5809 10.2858 16.4911 9.77265C16.4065 9.26481 16.3747 8.97914 16.4118 9.00559C16.4435 9.02146 16.7343 9.26481 17.6437 10.0424L17.1943 10.2911C16.951 10.4339 16.7237 10.5503 16.6867 10.5556Z" fill="#C4A386"/>
<path d="M36.9365 9.8165C36.9154 9.79534 37.2326 9.02299 37.645 8.09723C38.2425 6.75356 38.4117 6.42029 38.4751 6.44674C38.5227 6.4679 38.8663 6.61602 39.2364 6.78001C39.6118 6.944 40.0295 7.16619 40.1617 7.2667C40.2939 7.36721 40.4683 7.54707 40.5477 7.66345C40.627 7.77983 40.7221 7.98085 40.7591 8.1131C40.7961 8.24535 40.812 8.50457 40.7961 8.69501C40.7803 8.93835 40.7221 9.15524 40.59 9.43561C40.4895 9.6525 40.3097 9.93817 40.1934 10.0651C40.0824 10.1921 39.8656 10.3561 39.7229 10.4249C39.5748 10.4989 39.3528 10.573 39.2206 10.5836C39.0884 10.5994 38.8505 10.5836 38.6919 10.5465C38.5333 10.5095 38.0786 10.3349 37.6873 10.1656C37.2961 9.99107 36.9577 9.83237 36.9365 9.8165Z" fill="white"/>
<path d="M38.1948 8.6936C38.3852 8.2704 38.5966 7.79959 38.6654 7.65147V7.64618C38.7341 7.49805 38.8081 7.37109 38.824 7.37109C38.8399 7.37109 39.0513 7.46631 39.2998 7.5827C39.5589 7.70437 39.7968 7.85778 39.8603 7.93713C39.9184 8.02177 39.9924 8.18047 40.0189 8.29685C40.0559 8.43968 40.0559 8.5878 40.0189 8.75708C39.9872 8.89992 39.9131 9.10094 39.8603 9.20674C39.8074 9.31783 39.7017 9.47124 39.6382 9.5453C39.5695 9.61936 39.4267 9.72516 39.3263 9.77277C39.1941 9.84154 39.0672 9.8627 38.8769 9.84683C38.7288 9.83096 38.4433 9.74103 37.8564 9.46066L38.1948 8.6936Z" fill="#C4A386"/>
<path d="M18.8913 6.76411C19.1821 6.65302 19.5734 6.51018 19.7637 6.44141C19.9858 6.36206 20.229 6.31445 20.4405 6.31445C20.6625 6.31445 20.837 6.34619 20.9797 6.42025C21.0961 6.47844 21.2335 6.58954 21.2917 6.66889C21.3446 6.75353 21.4291 6.91223 21.4767 7.02861C21.5243 7.14499 21.5613 7.37775 21.5613 7.54174C21.5613 7.80624 21.5349 7.8856 21.1912 8.37757L22.4654 9.40913L22.1323 9.52022C21.9473 9.57841 21.7675 9.64718 21.7358 9.66305C21.6935 9.68421 21.4714 9.53609 21.1754 9.28746C20.911 9.06527 20.6467 8.84838 20.5938 8.81135C20.5198 8.75845 20.451 8.76374 20.2343 8.8378C20.0809 8.8907 19.954 8.95418 19.9382 8.98592C19.9276 9.01766 20.0122 9.29275 20.1338 9.60486C20.2501 9.92226 20.34 10.1815 20.3347 10.1921C20.3241 10.2026 20.1761 10.2608 20.0016 10.3243C19.8271 10.3931 19.6685 10.4248 19.6474 10.4037C19.6315 10.3772 19.3249 9.59957 18.9759 8.66852C18.6217 7.73747 18.3415 6.97042 18.3468 6.97042C18.3573 6.96513 18.6005 6.8752 18.8913 6.76411Z" fill="white"/>
<path d="M19.4301 7.30878C19.5095 7.27704 19.7315 7.19768 19.9219 7.12891C20.1122 7.06014 20.3184 7.00195 20.3818 7.00195C20.4506 7.00195 20.5775 7.07072 20.662 7.16065C20.7837 7.28233 20.8207 7.36697 20.8207 7.51509C20.8207 7.66321 20.7837 7.75314 20.6779 7.85894C20.5933 7.93829 20.3395 8.07583 20.1069 8.16576C19.8743 8.25569 19.6681 8.30859 19.6469 8.28743C19.6258 8.26098 19.5359 8.05467 19.4513 7.82191C19.3614 7.58915 19.2874 7.39342 19.2874 7.38284C19.2821 7.37755 19.3508 7.34581 19.4301 7.30878Z" fill="#C4A386"/>
<path d="M33.8487 8.94269C33.8434 8.9374 34.0602 8.12802 34.3193 7.14936V7.14407C34.5836 6.16541 34.8057 5.36133 34.811 5.36133C34.8163 5.36133 35.3873 5.51474 36.0799 5.70518C36.7778 5.89562 37.3541 6.0649 37.37 6.07548C37.3858 6.09135 37.3541 6.23947 37.3012 6.40876C37.2484 6.57275 37.2008 6.71558 37.1955 6.72087C37.1902 6.72616 36.7937 6.62565 36.3125 6.4934C35.8314 6.36644 35.419 6.26064 35.3873 6.26064C35.3608 6.26064 35.2921 6.42992 35.2392 6.64152C35.1917 6.85312 35.1546 7.03298 35.1599 7.04356C35.1705 7.04885 35.4243 7.12291 35.7309 7.20755C36.0376 7.29219 36.3865 7.38741 36.7355 7.47734L36.6509 7.77888C36.6033 7.94816 36.561 8.09099 36.561 8.10157C36.5557 8.10686 36.2174 8.02751 35.8103 7.92171C35.4031 7.81591 35.0436 7.72069 35.0172 7.70482C34.9907 7.69424 34.9167 7.86352 34.7528 8.48245L34.9643 8.54064C35.0806 8.57238 35.4983 8.68347 36.6033 8.98501L36.524 9.28654C36.4817 9.45053 36.4341 9.59865 36.4183 9.61452C36.4024 9.63039 35.8208 9.48756 35.1229 9.29712C34.425 9.11197 33.8487 8.95327 33.8487 8.94269Z" fill="white"/>
<path d="M22.4866 5.54225C22.661 5.50522 23.0787 5.41528 23.4118 5.34122C23.8136 5.25129 24.1097 5.21426 24.2842 5.23013C24.4322 5.246 24.6226 5.2989 24.7072 5.3518C24.7917 5.4047 24.9186 5.55283 24.9874 5.67979C25.0614 5.8332 25.1037 6.00777 25.1037 6.18234C25.1037 6.34633 25.0614 6.51032 24.8922 6.7907L25.0138 6.81186C25.0773 6.82773 25.1989 6.89121 25.2835 6.95998C25.368 7.02875 25.4844 7.17687 25.5372 7.29325C25.5848 7.40963 25.6324 7.61594 25.6324 7.75877C25.6324 7.89631 25.6007 8.08676 25.5584 8.18198C25.5214 8.27191 25.4209 8.41474 25.3363 8.49409C25.2517 8.57344 25.0508 8.69511 24.8922 8.76388C24.7336 8.83794 24.2419 8.97548 23.7978 9.0707C23.3536 9.17121 22.9783 9.23998 22.9677 9.22411C22.9518 9.20824 22.7721 8.42532 22.5659 7.4784C22.3597 6.53148 22.1852 5.7274 22.1799 5.68508C22.1746 5.63218 22.2645 5.58457 22.4866 5.54225Z" fill="white"/>
<path d="M23.3695 7.54554C23.3801 7.54554 23.6021 7.49264 23.8612 7.43445C24.1203 7.37626 24.3793 7.32336 24.4322 7.32336C24.4798 7.31807 24.5802 7.34981 24.6543 7.38684C24.7283 7.41858 24.8182 7.52438 24.8499 7.60902C24.8869 7.70953 24.8922 7.81004 24.8605 7.89468C24.834 7.96345 24.7283 8.06396 24.6278 8.11686C24.5274 8.16976 24.2419 8.25969 23.544 8.41311L23.4488 7.98461C23.3959 7.74656 23.3642 7.55083 23.3695 7.54554Z" fill="#C4A386"/>
<path d="M23.0523 6.12252C23.0628 6.12252 23.232 6.0802 23.4382 6.03788C23.6444 5.99027 23.8876 5.95324 23.9828 5.94795C24.0727 5.94266 24.1996 5.96911 24.2577 5.99556C24.3159 6.0273 24.374 6.12252 24.3899 6.20716C24.4058 6.29709 24.3899 6.41876 24.3529 6.48753C24.3212 6.55101 24.2577 6.63036 24.2101 6.66739C24.1626 6.70442 23.9616 6.7679 23.7554 6.81551C23.5493 6.86312 23.3483 6.91073 23.306 6.9266C23.2426 6.94247 23.2056 6.85254 23.1316 6.54043C23.084 6.31296 23.047 6.12781 23.0523 6.12252Z" fill="#C4A386"/>
<path d="M26.1084 5.02918C26.1084 4.89164 26.119 4.88635 26.4151 4.87048H26.4098C26.579 4.8599 26.7481 4.84932 26.7799 4.84403C26.8274 4.83874 26.8486 4.90751 26.8539 5.05563C26.8539 5.1826 26.8962 5.84385 26.9438 6.53685C26.9913 7.22455 27.0548 7.80646 27.0759 7.83291C27.1024 7.85407 27.5148 7.84349 28.0012 7.81175C28.4876 7.77472 28.8947 7.75885 28.9106 7.77472C28.9264 7.79059 28.9423 7.944 28.9476 8.11857C28.9582 8.34075 28.9423 8.43068 28.8947 8.43068C28.8642 8.43068 28.4282 8.4649 27.9154 8.50514L27.8532 8.51003C27.3139 8.55235 26.7534 8.58938 26.3463 8.58938L26.2247 6.88599C26.1613 5.94436 26.1084 5.11383 26.1084 5.02918Z" fill="white"/>
<path d="M29.423 6.71506C29.4864 5.77872 29.5393 4.93761 29.5393 4.84768C29.5393 4.68898 29.5551 4.6784 29.6873 4.69956C29.7666 4.71014 30.2742 4.74717 30.8135 4.77891C31.3528 4.81065 31.8868 4.84768 32.2146 4.89L32.1934 5.21798C32.1828 5.39784 32.1723 5.55125 32.167 5.55654C32.167 5.56183 31.7281 5.53538 30.2372 5.44016L30.2213 5.83691C30.2107 6.05381 30.2107 6.24425 30.2213 6.26012C30.2319 6.27599 30.6073 6.30773 31.0567 6.33947C31.6753 6.38179 31.8656 6.40824 31.8445 6.46114C31.8286 6.49288 31.818 6.64629 31.818 7.05362L31.358 7.02717C31.099 7.0113 30.7183 6.98485 30.1261 6.94782L30.1526 7.76778L31.0778 7.83126C31.5854 7.86829 32.0084 7.90003 32.0137 7.91061C32.0242 7.92119 32.0084 8.07989 31.9502 8.59832L31.7123 8.57186C31.5801 8.5507 30.9879 8.51367 29.3066 8.41316L29.423 6.71506Z" fill="white"/>
</svg>
